<svg xmlns="http://www.w3.org/2000/svg" width="665" height="160.644" viewBox="0 0 665 160.644">
  <g id="Group_1" data-name="Group 1" transform="translate(-632 -409.856)">
    <g id="Ellipse_6" data-name="Ellipse 6" transform="translate(1181 453)" fill="none" stroke="#fff" stroke-width="20">
      <circle cx="58" cy="58" r="58" stroke="none"/>
      <circle cx="58" cy="58" r="48" fill="none"/>
    </g>
    <g id="Path_5" data-name="Path 5" transform="translate(1053.946 568.946) rotate(-90)" fill="none">
      <path d="M58,0a58,58,0,0,1,58,58v57.884c-.851.5-116,0-116,0V58A58,58,0,0,1,58,0Z" stroke="none"/>
      <path d="M 58 19.99998474121094 C 37.04671478271484 19.99998474121094 20 37.04669952392578 20 57.99998474121094 L 20 95.96189880371094 C 38.02345275878906 96.02622985839844 64.83837127685547 96.10726928710938 85.54785919189453 96.10726928710938 C 89.55812072753906 96.10726928710938 93.01593780517578 96.10420227050781 96 96.09889221191406 L 96 57.99998474121094 C 96 37.04669952392578 78.95328521728516 19.99998474121094 58 19.99998474121094 M 58 -1.52587890625e-05 C 90.03250122070312 -1.52587890625e-05 116 25.96748352050781 116 57.99998474121094 C 116 74.08030700683594 116 115.8842697143555 116 115.8842697143555 C 115.1493225097656 116.385986328125 0 115.8842697143555 0 115.8842697143555 C 0 115.8842697143555 0 90.03252410888672 0 57.99998474121094 C 0 25.96748352050781 25.96749877929688 -1.52587890625e-05 58 -1.52587890625e-05 Z" stroke="none" fill="#fff"/>
    </g>
    <g id="Path_4" data-name="Path 4" transform="translate(927 453)" fill="none">
      <path d="M58,0a58,58,0,0,1,58,58v57.884c-.851.5-116,0-116,0V58A58,58,0,0,1,58,0Z" stroke="none"/>
      <path d="M 58 19.99998474121094 C 37.04671478271484 19.99998474121094 20 37.04669952392578 20 57.99998474121094 L 20 95.96189880371094 C 38.02345275878906 96.02622985839844 64.83837127685547 96.10726928710938 85.54785919189453 96.10726928710938 C 89.55812072753906 96.10726928710938 93.01593780517578 96.10420227050781 96 96.09889221191406 L 96 57.99998474121094 C 96 37.04669952392578 78.95328521728516 19.99998474121094 58 19.99998474121094 M 58 -1.52587890625e-05 C 90.03250122070312 -1.52587890625e-05 116 25.96748352050781 116 57.99998474121094 C 116 74.08030700683594 116 115.8842697143555 116 115.8842697143555 C 115.1493225097656 116.385986328125 0 115.8842697143555 0 115.8842697143555 C 0 115.8842697143555 0 90.03252410888672 0 57.99998474121094 C 0 25.96748352050781 25.96749877929688 -1.52587890625e-05 58 -1.52587890625e-05 Z" stroke="none" fill="#fff"/>
    </g>
    <g id="Path_3" data-name="Path 3" transform="translate(800 453)" fill="none">
      <path d="M58,0a58,58,0,0,1,58,58v58H58A58,58,0,0,1,58,0Z" stroke="none"/>
      <path d="M 58 20 C 37.04671478271484 20 20 37.04671478271484 20 58 C 20 78.95328521728516 37.04671478271484 96 58 96 L 96 96 L 96 58 C 96 37.04671478271484 78.95328521728516 20 58 20 M 58 0 C 90.03250122070312 0 116 25.96749877929688 116 58 C 116 73.56778717041016 116 116 116 116 C 116 116 74.46471405029297 116 58 116 C 25.96749877929688 116 0 90.03250122070312 0 58 C 0 25.96749877929688 25.96749877929688 0 58 0 Z" stroke="none" fill="#fff"/>
    </g>
    <path id="Path_2" data-name="Path 2" d="M0,9.356V150" transform="translate(774.5 410.5)" fill="none" stroke="#fff" stroke-linecap="round" stroke-width="20"/>
    <g id="Path_1" data-name="Path 1" transform="translate(632 453)" fill="none">
      <path d="M58,0c33.029,3.2,58,25.967,58,58A58,58,0,0,1,0,58V-40.893C8.862-46.684,28.654.15,58,0Z" stroke="none"/>
      <path d="M 20 4.341903686523438 L 20 57.9999885559082 C 20 78.95327758789062 37.04670715332031 95.99998474121094 58 95.99998474121094 C 78.95329284667969 95.99998474121094 96 78.95327758789062 96 57.9999885559082 C 96 34.67541122436523 76.48423767089844 22.17137908935547 56.87704849243164 19.99058532714844 C 42.11602783203125 19.69604110717773 29.94684600830078 12.8054313659668 20 4.341903686523438 M 1.659210205078125 -41.38890838623047 C 11.19971466064453 -41.38890838623047 30.36054992675781 0.1439743041992188 58 -1.52587890625e-05 C 91.02867126464844 3.1983642578125 116 25.96748733520508 116 57.9999885559082 C 116 90.03253173828125 90.03250122070312 115.9999847412109 58 115.9999847412109 C 25.96749877929688 115.9999847412109 0 90.03253173828125 0 57.9999885559082 L 0 -40.89284515380859 C 0.5160293579101562 -41.23007202148438 1.069343566894531 -41.38890838623047 1.659210205078125 -41.38890838623047 Z" stroke="none" fill="#fff"/>
    </g>
  </g>
</svg>
